<svg width="227" height="15" viewBox="0 0 227 15" fill="none" xmlns="http://www.w3.org/2000/svg">
<path d="M8.43461 14.78C7.31461 14.78 6.28128 14.6 5.33461 14.24C4.38794 13.88 3.56128 13.3733 2.85461 12.72C2.16128 12.0533 1.62128 11.28 1.23461 10.4C0.847943 9.52 0.654609 8.55333 0.654609 7.5C0.654609 6.44667 0.847943 5.48 1.23461 4.6C1.62128 3.72 2.16128 2.95333 2.85461 2.3C3.56128 1.63333 4.38794 1.12 5.33461 0.759999C6.28128 0.399999 7.31461 0.219999 8.43461 0.219999C9.56794 0.219999 10.6013 0.399999 11.5346 0.759999C12.4813 1.12 13.3013 1.63333 13.9946 2.3C14.6879 2.95333 15.2279 3.72 15.6146 4.6C16.0146 5.48 16.2146 6.44667 16.2146 7.5C16.2146 8.55333 16.0146 9.52667 15.6146 10.42C15.2279 11.3 14.6879 12.0667 13.9946 12.72C13.3013 13.3733 12.4813 13.88 11.5346 14.24C10.6013 14.6 9.56794 14.78 8.43461 14.78ZM8.43461 11.5C8.96794 11.5 9.46128 11.4067 9.91461 11.22C10.3813 11.0333 10.7813 10.7667 11.1146 10.42C11.4613 10.06 11.7279 9.63333 11.9146 9.14C12.1146 8.64667 12.2146 8.1 12.2146 7.5C12.2146 6.88667 12.1146 6.34 11.9146 5.86C11.7279 5.36667 11.4613 4.94667 11.1146 4.6C10.7813 4.24 10.3813 3.96667 9.91461 3.78C9.46128 3.59333 8.96794 3.5 8.43461 3.5C7.90128 3.5 7.40128 3.59333 6.93461 3.78C6.48128 3.96667 6.08128 4.24 5.73461 4.6C5.40128 4.94667 5.13461 5.36667 4.93461 5.86C4.74794 6.34 4.65461 6.88667 4.65461 7.5C4.65461 8.1 4.74794 8.64667 4.93461 9.14C5.13461 9.63333 5.40128 10.06 5.73461 10.42C6.08128 10.7667 6.48128 11.0333 6.93461 11.22C7.40128 11.4067 7.90128 11.5 8.43461 11.5ZM18.2887 14.5V0.499999H22.2487V11.36H28.9287V14.5H18.2887ZM30.4957 14.5V0.499999H34.4557V14.5H30.4957ZM37.273 14.5V0.499999H40.533L46.333 10.02H44.613L50.253 0.499999H53.513L53.553 14.5H49.913L49.873 6.04H50.493L46.273 13.12H44.513L40.173 6.04H40.933V14.5H37.273ZM56.3551 14.5V0.499999H62.7551C64.0351 0.499999 65.1351 0.706666 66.0551 1.12C66.9884 1.53333 67.7084 2.13333 68.2151 2.92C68.7217 3.69333 68.9751 4.61333 68.9751 5.68C68.9751 6.73333 68.7217 7.64667 68.2151 8.42C67.7084 9.19333 66.9884 9.79333 66.0551 10.22C65.1351 10.6333 64.0351 10.84 62.7551 10.84H58.5551L60.3151 9.12V14.5H56.3551ZM60.3151 9.54L58.5551 7.72H62.5151C63.3417 7.72 63.9551 7.54 64.3551 7.18C64.7684 6.82 64.9751 6.32 64.9751 5.68C64.9751 5.02667 64.7684 4.52 64.3551 4.16C63.9551 3.8 63.3417 3.62 62.5151 3.62H58.5551L60.3151 1.8V9.54ZM80.6015 6.64H87.0615V9.7H80.6015V6.64ZM80.8815 14.5H76.9215V0.499999H87.9015V3.56H80.8815V14.5ZM89.7535 14.5V0.499999H93.7135V14.5H89.7535ZM99.5109 14.5V3.64H95.2109V0.499999H107.751V3.64H103.471V14.5H99.5109ZM109.226 14.5V0.499999H112.486L120.206 9.82H118.666V0.499999H122.546V14.5H119.286L111.566 5.18H113.106V14.5H109.226ZM128.979 5.92H135.479V8.88H128.979V5.92ZM129.259 11.44H136.579V14.5H125.339V0.499999H136.319V3.56H129.259V11.44ZM143.697 14.78C142.55 14.78 141.444 14.64 140.377 14.36C139.324 14.0667 138.464 13.6933 137.797 13.24L139.097 10.32C139.724 10.72 140.444 11.0533 141.257 11.32C142.084 11.5733 142.904 11.7 143.717 11.7C144.264 11.7 144.704 11.6533 145.037 11.56C145.37 11.4533 145.61 11.32 145.757 11.16C145.917 10.9867 145.997 10.7867 145.997 10.56C145.997 10.24 145.85 9.98667 145.557 9.8C145.264 9.61333 144.884 9.46 144.417 9.34C143.95 9.22 143.43 9.1 142.857 8.98C142.297 8.86 141.73 8.70667 141.157 8.52C140.597 8.33333 140.084 8.09333 139.617 7.8C139.15 7.49333 138.77 7.1 138.477 6.62C138.184 6.12667 138.037 5.50667 138.037 4.76C138.037 3.92 138.264 3.16 138.717 2.48C139.184 1.8 139.877 1.25333 140.797 0.839999C141.717 0.426666 142.864 0.219999 144.237 0.219999C145.157 0.219999 146.057 0.326666 146.937 0.54C147.83 0.74 148.624 1.04 149.317 1.44L148.097 4.38C147.43 4.02 146.77 3.75333 146.117 3.58C145.464 3.39333 144.83 3.3 144.217 3.3C143.67 3.3 143.23 3.36 142.897 3.48C142.564 3.58667 142.324 3.73333 142.177 3.92C142.03 4.10667 141.957 4.32 141.957 4.56C141.957 4.86667 142.097 5.11333 142.377 5.3C142.67 5.47333 143.05 5.62 143.517 5.74C143.997 5.84667 144.517 5.96 145.077 6.08C145.65 6.2 146.217 6.35333 146.777 6.54C147.35 6.71333 147.87 6.95333 148.337 7.26C148.804 7.55333 149.177 7.94667 149.457 8.44C149.75 8.92 149.897 9.52667 149.897 10.26C149.897 11.0733 149.664 11.8267 149.197 12.52C148.744 13.2 148.057 13.7467 147.137 14.16C146.23 14.5733 145.084 14.78 143.697 14.78ZM156.646 14.78C155.5 14.78 154.393 14.64 153.326 14.36C152.273 14.0667 151.413 13.6933 150.746 13.24L152.046 10.32C152.673 10.72 153.393 11.0533 154.206 11.32C155.033 11.5733 155.853 11.7 156.666 11.7C157.213 11.7 157.653 11.6533 157.986 11.56C158.32 11.4533 158.56 11.32 158.706 11.16C158.866 10.9867 158.946 10.7867 158.946 10.56C158.946 10.24 158.8 9.98667 158.506 9.8C158.213 9.61333 157.833 9.46 157.366 9.34C156.9 9.22 156.38 9.1 155.806 8.98C155.246 8.86 154.68 8.70667 154.106 8.52C153.546 8.33333 153.033 8.09333 152.566 7.8C152.1 7.49333 151.72 7.1 151.426 6.62C151.133 6.12667 150.986 5.50667 150.986 4.76C150.986 3.92 151.213 3.16 151.666 2.48C152.133 1.8 152.826 1.25333 153.746 0.839999C154.666 0.426666 155.813 0.219999 157.186 0.219999C158.106 0.219999 159.006 0.326666 159.886 0.54C160.78 0.74 161.573 1.04 162.266 1.44L161.046 4.38C160.38 4.02 159.72 3.75333 159.066 3.58C158.413 3.39333 157.78 3.3 157.166 3.3C156.62 3.3 156.18 3.36 155.846 3.48C155.513 3.58667 155.273 3.73333 155.126 3.92C154.98 4.10667 154.906 4.32 154.906 4.56C154.906 4.86667 155.046 5.11333 155.326 5.3C155.62 5.47333 156 5.62 156.466 5.74C156.946 5.84667 157.466 5.96 158.026 6.08C158.6 6.2 159.166 6.35333 159.726 6.54C160.3 6.71333 160.82 6.95333 161.286 7.26C161.753 7.55333 162.126 7.94667 162.406 8.44C162.7 8.92 162.846 9.52667 162.846 10.26C162.846 11.0733 162.613 11.8267 162.146 12.52C161.693 13.2 161.006 13.7467 160.086 14.16C159.18 14.5733 158.033 14.78 156.646 14.78ZM177.476 14.78C176.369 14.78 175.342 14.6067 174.396 14.26C173.462 13.9 172.649 13.3933 171.956 12.74C171.276 12.0867 170.742 11.32 170.356 10.44C169.969 9.54667 169.776 8.56667 169.776 7.5C169.776 6.43333 169.969 5.46 170.356 4.58C170.742 3.68667 171.276 2.91333 171.956 2.26C172.649 1.60667 173.462 1.10667 174.396 0.759999C175.342 0.399999 176.369 0.219999 177.476 0.219999C178.769 0.219999 179.922 0.446666 180.936 0.9C181.962 1.35333 182.816 2.00667 183.496 2.86L180.976 5.14C180.522 4.60667 180.022 4.2 179.476 3.92C178.942 3.64 178.342 3.5 177.676 3.5C177.102 3.5 176.576 3.59333 176.096 3.78C175.616 3.96667 175.202 4.24 174.856 4.6C174.522 4.94667 174.256 5.36667 174.056 5.86C173.869 6.35333 173.776 6.9 173.776 7.5C173.776 8.1 173.869 8.64667 174.056 9.14C174.256 9.63333 174.522 10.06 174.856 10.42C175.202 10.7667 175.616 11.0333 176.096 11.22C176.576 11.4067 177.102 11.5 177.676 11.5C178.342 11.5 178.942 11.36 179.476 11.08C180.022 10.8 180.522 10.3933 180.976 9.86L183.496 12.14C182.816 12.98 181.962 13.6333 180.936 14.1C179.922 14.5533 178.769 14.78 177.476 14.78ZM185.261 14.5V0.499999H189.221V11.36H195.901V14.5H185.261ZM203.792 14.78C201.725 14.78 200.112 14.2133 198.952 13.08C197.792 11.9467 197.212 10.34 197.212 8.26V0.499999H201.172V8.14C201.172 9.34 201.405 10.2 201.872 10.72C202.352 11.24 203.005 11.5 203.832 11.5C204.658 11.5 205.305 11.24 205.772 10.72C206.238 10.2 206.472 9.34 206.472 8.14V0.499999H210.372V8.26C210.372 10.34 209.792 11.9467 208.632 13.08C207.472 14.2133 205.858 14.78 203.792 14.78ZM213.054 14.5V0.499999H220.214C222.054 0.499999 223.428 0.839999 224.334 1.52C225.241 2.18667 225.694 3.06667 225.694 4.16C225.694 4.88 225.501 5.51333 225.114 6.06C224.741 6.59333 224.208 7.02 223.514 7.34C222.834 7.64667 222.021 7.8 221.074 7.8L221.474 6.84C222.461 6.84 223.321 6.99333 224.054 7.3C224.788 7.59333 225.354 8.02667 225.754 8.6C226.168 9.16 226.374 9.84667 226.374 10.66C226.374 11.8733 225.881 12.82 224.894 13.5C223.921 14.1667 222.494 14.5 220.614 14.5H213.054ZM216.974 11.64H220.294C220.974 11.64 221.488 11.5267 221.834 11.3C222.194 11.06 222.374 10.7 222.374 10.22C222.374 9.74 222.194 9.38667 221.834 9.16C221.488 8.92 220.974 8.8 220.294 8.8H216.694V6.06H219.694C220.361 6.06 220.861 5.94667 221.194 5.72C221.528 5.49333 221.694 5.15333 221.694 4.7C221.694 4.24667 221.528 3.91333 221.194 3.7C220.861 3.47333 220.361 3.36 219.694 3.36H216.974V11.64Z" fill="white"/>
</svg>
