<svg width="30" height="30" viewBox="0 0 30 30" fill="none" xmlns="http://www.w3.org/2000/svg">
<g id="&#240;&#159;&#166;&#134; icon &#34;call&#34;">
<g id="Group">
<path id="Vector" d="M13.5756 19.4259L10.8005 22.201C10.2155 22.786 9.28542 22.786 8.68539 22.216C8.52038 22.051 8.35538 21.901 8.19037 21.736C6.6453 20.1759 5.25024 18.5408 4.00518 16.8308C2.77512 15.1207 1.78508 13.4106 1.06505 11.7155C0.360016 10.0055 0 8.37038 0 6.81031C0 5.79026 0.180008 4.81522 0.540024 3.91518C0.90004 3.00014 1.47007 2.1601 2.2651 1.41006C3.22514 0.465021 4.27519 0 5.38524 0C5.80526 0 6.22528 0.0900042 6.6003 0.270012C6.99031 0.45002 7.33533 0.720032 7.60534 1.11005L11.0855 6.01527C11.3555 6.39029 11.5505 6.7353 11.6855 7.06532C11.8205 7.38033 11.8955 7.69535 11.8955 7.98036C11.8955 8.34037 11.7905 8.70039 11.5805 9.04541C11.3855 9.39042 11.1005 9.75044 10.7405 10.1105L9.60043 11.2955C9.43542 11.4605 9.36042 11.6555 9.36042 11.8955C9.36042 12.0155 9.37542 12.1205 9.40542 12.2406C9.45043 12.3606 9.49543 12.4506 9.52543 12.5406C9.79544 13.0356 10.2605 13.6806 10.9205 14.4607C11.5955 15.2407 12.3156 16.0357 13.0956 16.8308C13.2456 16.9808 13.4106 17.1308 13.5606 17.2808C14.1606 17.8658 14.1756 18.8258 13.5756 19.4259Z" fill="white"/>
<path id="Vector_2" d="M29.9557 24.4944C29.9557 24.9144 29.8807 25.3494 29.7307 25.7694C29.6857 25.8894 29.6407 26.0094 29.5807 26.1294C29.3257 26.6695 28.9957 27.1795 28.5607 27.6595C27.8256 28.4696 27.0156 29.0546 26.1005 29.4296C26.0855 29.4296 26.0705 29.4446 26.0555 29.4446C25.1705 29.8046 24.2105 29.9996 23.1754 29.9996C21.6453 29.9996 20.0103 29.6396 18.2852 28.9046C16.5601 28.1695 14.835 27.1795 13.125 25.9344C12.5399 25.4994 11.9549 25.0644 11.3999 24.5994L16.3051 19.6942C16.7251 20.0092 17.1001 20.2492 17.4152 20.4142C17.4902 20.4442 17.5802 20.4892 17.6852 20.5342C17.8052 20.5792 17.9252 20.5942 18.0602 20.5942C18.3152 20.5942 18.5102 20.5042 18.6752 20.3392L19.8153 19.2141C20.1903 18.8391 20.5503 18.5541 20.8953 18.3741C21.2403 18.1641 21.5853 18.0591 21.9604 18.0591C22.2454 18.0591 22.5454 18.1191 22.8754 18.2541C23.2054 18.3891 23.5504 18.5841 23.9255 18.8391L28.8907 22.3643C29.2807 22.6343 29.5507 22.9493 29.7157 23.3243C29.8657 23.6993 29.9557 24.0744 29.9557 24.4944Z" fill="white"/>
</g>
</g>
</svg>
