<svg width="34" height="34" viewBox="0 0 34 34" fill="none" xmlns="http://www.w3.org/2000/svg">
<g id="&#240;&#159;&#166;&#134; icon &#34;location&#34;">
<path id="Vector" d="M33.4409 11.1122C31.4344 3.44976 23.7335 0 16.9689 0C16.9689 0 16.9689 0 16.9498 0C10.2042 0 2.48414 3.43317 0.477685 11.0956C-1.75808 19.6537 4.28039 26.9015 9.74559 31.4624C11.7711 33.1541 14.37 34 16.9689 34C19.5677 34 22.1665 33.1541 24.173 31.4624C29.6382 26.9015 35.6767 19.6702 33.4409 11.1122ZM16.9689 19.4215C13.6439 19.4215 10.9495 17.0829 10.9495 14.1971C10.9495 11.3112 13.6439 8.97268 16.9689 8.97268C20.2938 8.97268 22.9882 11.3112 22.9882 14.1971C22.9882 17.0829 20.2938 19.4215 16.9689 19.4215Z" fill="white"/>
</g>
</svg>
