<svg width="31" height="30" viewBox="0 0 31 30" fill="none" xmlns="http://www.w3.org/2000/svg">
<path id="Vector" d="M22.5113 0H7.50375C3.36168 0 0 3.34667 0 7.47374V16.4482V17.949C0 22.076 3.36168 25.4227 7.50375 25.4227H9.75488C10.1601 25.4227 10.7003 25.6928 10.9555 26.023L13.2066 29.0095C14.1971 30.3302 15.8179 30.3302 16.8084 29.0095L19.0595 26.023C19.3447 25.6478 19.7949 25.4227 20.2601 25.4227H22.5113C26.6533 25.4227 30.015 22.076 30.015 17.949V7.47374C30.015 3.34667 26.6533 0 22.5113 0ZM9.0045 15.0075C8.16408 15.0075 7.50375 14.3322 7.50375 13.5068C7.50375 12.6813 8.17909 12.006 9.0045 12.006C9.82991 12.006 10.5053 12.6813 10.5053 13.5068C10.5053 14.3322 9.84492 15.0075 9.0045 15.0075ZM15.0075 15.0075C14.1671 15.0075 13.5068 14.3322 13.5068 13.5068C13.5068 12.6813 14.1821 12.006 15.0075 12.006C15.8329 12.006 16.5083 12.6813 16.5083 13.5068C16.5083 14.3322 15.8479 15.0075 15.0075 15.0075ZM21.0105 15.0075C20.1701 15.0075 19.5098 14.3322 19.5098 13.5068C19.5098 12.6813 20.1851 12.006 21.0105 12.006C21.8359 12.006 22.5113 12.6813 22.5113 13.5068C22.5113 14.3322 21.8509 15.0075 21.0105 15.0075Z" fill="white"/>
</svg>
