<svg width="30" height="30" viewBox="0 0 30 30" fill="none" xmlns="http://www.w3.org/2000/svg">
<g id="icon/twitter">
<path id="vector" d="M24.9406 9.89992C24.9558 10.1203 24.9558 10.3407 24.9558 10.5631C24.9558 17.3405 19.7964 25.1569 10.3621 25.1569V25.1528C7.57516 25.1569 4.84613 24.3586 2.5 22.8534C2.90524 22.9022 3.31251 22.9265 3.7208 22.9275C6.03037 22.9296 8.27392 22.1546 10.0909 20.7277C7.8961 20.686 5.97146 19.255 5.29911 17.1658C6.06795 17.3141 6.86015 17.2836 7.61477 17.0774C5.22192 16.594 3.50041 14.4916 3.50041 12.05C3.50041 12.0277 3.50041 12.0064 3.50041 11.985C4.21339 12.3821 5.01168 12.6025 5.82826 12.6269C3.57455 11.1207 2.87985 8.12254 4.24081 5.77845C6.84491 8.98279 10.6871 10.9308 14.8116 11.137C14.3982 9.35553 14.9629 7.48878 16.2955 6.2365C18.3613 4.29459 21.6103 4.39413 23.5522 6.45892C24.7009 6.23244 25.8018 5.81095 26.8094 5.21375C26.4265 6.40103 25.6251 7.40956 24.5546 8.05043C25.5713 7.93059 26.5646 7.6584 27.5 7.243C26.8114 8.27489 25.944 9.17373 24.9406 9.89992Z" fill="white"/>
</g>
</svg>
